<svg width="16" height="16" viewBox="0 0 16 16" fill="none" xmlns="http://www.w3.org/2000/svg">
<path d="M16 8C16 12.4183 12.4183 16 8 16C3.58172 16 0 12.4183 0 8C0 3.58172 3.58172 0 8 0C12.4183 0 16 3.58172 16 8Z" fill="#1C69FF"/>
<path fill-rule="evenodd" clip-rule="evenodd" d="M12.2071 5.29289C12.5976 5.68342 12.5976 6.31658 12.2071 6.70711L7.70711 11.2071C7.31658 11.5976 6.68342 11.5976 6.29289 11.2071L3.79289 8.70711C3.40237 8.31658 3.40237 7.68342 3.79289 7.29289C4.18342 6.90237 4.81658 6.90237 5.20711 7.29289L7 9.08579L10.7929 5.29289C11.1834 4.90237 11.8166 4.90237 12.2071 5.29289Z" fill="white"/>
</svg>
